<?xml version="1.0" standalone="no"?>
<!DOCTYPE svg PUBLIC "-//W3C//DTD SVG 1.1//EN" "http://www.w3.org/Graphics/SVG/1.1/DTD/svg11.dtd" >
<svg xmlns="http://www.w3.org/2000/svg">
<metadata></metadata>
<defs>
<font id="cassannet_regularregular" horiz-adv-x="1107" >
<font-face units-per-em="2048" ascent="1536" descent="-512" />
<missing-glyph horiz-adv-x="514" />
<glyph unicode="&#x2e;&#x2e;&#x2e;" horiz-adv-x="1507" d="M100 111q0 56 39.5 96.5t96.5 40.5q55 0 95 -40.5t40 -96.5q0 -57 -39.5 -97.5t-95.5 -40.5q-57 0 -96.5 40.5t-39.5 97.5zM618 111q0 56 39.5 96.5t96.5 40.5q55 0 95 -40.5t40 -96.5q0 -57 -39.5 -97.5t-95.5 -40.5q-57 0 -96.5 40.5t-39.5 97.5zM1137 111 q0 56 39.5 96.5t95.5 40.5q55 0 95 -40.5t40 -96.5q0 -57 -39.5 -97.5t-95.5 -40.5q-57 0 -96 40.5t-39 97.5z" />
<glyph unicode="&#xfb01;" horiz-adv-x="1212" d="M123 0v963h569v-185h-373v-205h353v-180h-353v-393h-196zM893 0v963h197v-963h-197z" />
<glyph unicode="&#xfb02;" horiz-adv-x="1519" d="M123 0v963h569v-185h-373v-205h353v-180h-353v-393h-196zM893 0v963h197v-779h393v-184h-590z" />
<glyph horiz-adv-x="2048" />
<glyph horiz-adv-x="2048" />
<glyph unicode="&#xd;" horiz-adv-x="2048" />
<glyph unicode=" "  horiz-adv-x="514" />
<glyph unicode="&#x09;" horiz-adv-x="514" />
<glyph unicode="&#xa0;" horiz-adv-x="514" />
<glyph unicode="!" horiz-adv-x="638" d="M184 111q0 56 39.5 96.5t95.5 40.5q55 0 95.5 -40.5t40.5 -96.5q0 -57 -40 -97.5t-96 -40.5q-57 0 -96 40.5t-39 97.5zM227 362v1072h185v-1072h-185z" />
<glyph unicode="&#x22;" horiz-adv-x="747" d="M127 1434h186l-32 -621h-119zM434 1434h187l-35 -621h-117z" />
<glyph unicode="#" horiz-adv-x="1163" d="M84 397v154h211l51 293h-201v153h230l65 369h148l-68 -369h240l65 369h148l-68 -369h174v-153h-202l-54 -293h195v-154h-223l-72 -397h-141l69 397h-241l-72 -397h-141l69 397h-182zM438 551h242l51 293h-239z" />
<glyph unicode="$" horiz-adv-x="1169" d="M72 1034q0 165 116 282.5t281 117.5h66v184h112v-184h279v-195h-279v-418h58q168 0 286.5 -119.5t118.5 -285.5q0 -169 -119 -292.5t-286 -123.5h-58v-184h-112v184h-385v205h385v420h-66q-164 0 -280.5 121.5t-116.5 287.5zM285 1030q0 -86 61.5 -147.5t147.5 -61.5h41 v418h-41q-86 0 -147.5 -61.5t-61.5 -147.5zM647 205h21q93 0 157 59.5t64 149.5q0 91 -64 151t-157 60h-21v-420z" />
<glyph unicode="%" horiz-adv-x="1400" d="M51 1130q0 136 96.5 232t231.5 96q136 0 233 -96t97 -232q0 -132 -97.5 -226.5t-232.5 -94.5t-231.5 94.5t-96.5 226.5zM170 1133q0 -87 59.5 -148t149.5 -61q91 0 151 61t60 148q0 89 -60 149.5t-151 60.5q-90 0 -149.5 -60.5t-59.5 -149.5zM229 20l834 1438l106 -61 l-831 -1436zM690 295q0 136 96.5 232t231.5 96q136 0 233 -96t97 -232q0 -132 -97.5 -227t-232.5 -95t-231.5 95t-96.5 227zM809 297q0 -87 59.5 -148t149.5 -61q91 0 151 61t60 148q0 89 -60 150t-151 61q-90 0 -149.5 -61t-59.5 -150z" />
<glyph unicode="&#x26;" horiz-adv-x="1189" d="M66 416q0 166 118.5 285.5t286.5 119.5h33l-320 613h811v-177h-485l459 -886h-230l-133 254h-98q-93 0 -157 -60t-64 -151q0 -90 64 -149.5t157 -59.5h618v-205h-655q-167 0 -286 123.5t-119 292.5z" />
<glyph unicode="'" horiz-adv-x="440" d="M127 1434h186l-32 -621h-119z" />
<glyph unicode="(" horiz-adv-x="655" d="M131 604q0 221 37.5 447.5t114.5 414.5h227q-86 -181 -126 -406.5t-40 -455.5t40 -455.5t126 -406.5h-227q-77 188 -114.5 414.5t-37.5 447.5z" />
<glyph unicode=")" horiz-adv-x="655" d="M145 -258q86 181 126 406.5t40 455.5t-40 455.5t-126 406.5h228q77 -187 114 -413.5t37 -448.5t-37 -448.5t-114 -413.5h-228z" />
<glyph unicode="*" horiz-adv-x="751" d="M80 1014l174 100l-172 103l63 116l183 -100v201h141v-195l166 98l72 -120l-175 -103l175 -102l-72 -119l-166 102v-196h-141v198l-178 -100z" />
<glyph unicode="+" horiz-adv-x="1048" d="M0 442v176h436v443h176v-443h437v-176h-437v-442h-176v442h-436z" />
<glyph unicode="," horiz-adv-x="509" d="M59 -233l136 438h227l-236 -438h-127z" />
<glyph unicode="-" horiz-adv-x="759" d="M106 412v180h545v-180h-545z" />
<glyph unicode="." horiz-adv-x="466" d="M100 111q0 56 39.5 96.5t96.5 40.5q55 0 95 -40.5t40 -96.5q0 -57 -39.5 -97.5t-95.5 -40.5q-57 0 -96.5 40.5t-39.5 97.5z" />
<glyph unicode="/" horiz-adv-x="1093" d="M76 -272l772 1781l170 -75l-774 -1782z" />
<glyph unicode="0" horiz-adv-x="1255" d="M68 717q0 109 18 211t60.5 199.5t105.5 170t159.5 116.5t215.5 44t215.5 -44t159.5 -116.5t105.5 -170t60.5 -199.5t18 -211t-18 -211.5t-60.5 -200.5t-105 -170.5t-159.5 -117t-216 -44.5t-216 44.5t-159.5 117t-105 170.5t-60.5 200.5t-18 211.5zM281 717 q0 -118 17.5 -215t56 -177.5t108 -125.5t164.5 -45t164.5 45t108 125.5t56 177.5t17.5 215t-17.5 214.5t-56 177t-107.5 125t-165 44.5t-165 -44.5t-107.5 -125t-56 -177t-17.5 -214.5z" />
<glyph unicode="1" horiz-adv-x="692" d="M131 1260v176h408v-1436h-201v1260h-207z" />
<glyph unicode="2" horiz-adv-x="1128" d="M98 0l465 602q-123 1 -227.5 59.5t-165.5 156.5t-61 212q0 115 62 213.5t168 156.5t230 58t230.5 -58t168.5 -156.5t62 -213.5q0 -88 -27 -152t-88 -141l-440 -561h545v-176h-922zM315 1030q0 -103 73.5 -176.5t176.5 -73.5t177.5 73.5t74.5 176.5t-74.5 176.5 t-177.5 73.5t-176.5 -73.5t-73.5 -176.5z" />
<glyph unicode="3" horiz-adv-x="1062" d="M78 379h209q6 -104 71 -164.5t168 -60.5q125 0 198 69t73 185q0 120 -81 191t-224 71h-170l333 587h-485v177h811l-340 -607q153 -19 261 -130.5t108 -264.5q0 -128 -53.5 -230.5t-165.5 -165.5t-265 -63q-199 0 -323.5 112t-124.5 294z" />
<glyph unicode="4" horiz-adv-x="1222" d="M59 246l940 1214v-1038h177v-176h-177v-246h-200v246h-740zM416 422h383v502z" />
<glyph unicode="5" horiz-adv-x="1021" d="M20 121l117 137q52 -52 126.5 -81.5t146.5 -29.5q144 0 239.5 97t95.5 239q0 138 -106 237t-248 99q-83 0 -144 -25t-118 -73l78 713h676v-177h-527l-30 -264q27 6 84 6q149 0 275 -69t199.5 -188t73.5 -259q0 -217 -154.5 -366.5t-393.5 -149.5q-233 0 -390 154z" />
<glyph unicode="6" horiz-adv-x="1054" d="M63 426q0 136 78 254l529 788l151 -112l-311 -473h14q195 0 331 -134t136 -323q0 -187 -136.5 -320t-330.5 -133q-190 0 -325.5 133.5t-135.5 319.5zM276 428q0 -113 74 -190.5t178 -77.5t177 77.5t73 190.5t-73 190.5t-177 77.5t-178 -77.5t-74 -190.5z" />
<glyph unicode="7" horiz-adv-x="1159" d="M123 1257v177h987l-756 -1469l-168 92l615 1200h-678z" />
<glyph unicode="8" horiz-adv-x="1087" d="M84 395q0 107 55.5 201t149.5 152q-73 55 -114.5 136.5t-41.5 176.5q0 164 120 280.5t290 116.5t289.5 -116.5t119.5 -280.5q0 -95 -41 -176.5t-114 -136.5q94 -58 149 -152t55 -201q0 -115 -61.5 -212t-167 -153.5t-229.5 -56.5t-229.5 56.5t-167.5 154t-62 211.5z M297 403q0 -102 71.5 -171.5t174.5 -69.5t174 69.5t71 171.5q0 103 -71 173.5t-174 70.5t-174.5 -70.5t-71.5 -173.5zM334 1057q0 -92 59.5 -152.5t149.5 -60.5t149.5 60.5t59.5 152.5q0 93 -59.5 154t-149.5 61t-149.5 -61t-59.5 -154z" />
<glyph unicode="9" horiz-adv-x="1054" d="M63 1006q0 187 136.5 319.5t330.5 132.5q190 0 325.5 -133t135.5 -319q0 -139 -78 -254l-528 -789l-152 113l312 473h-15q-195 0 -331 134t-136 323zM276 1004q0 -113 73.5 -191t176.5 -78q104 0 178 78t74 191t-74 190.5t-178 77.5t-177 -77.5t-73 -190.5z" />
<glyph unicode=":" horiz-adv-x="466" d="M100 111q0 56 39.5 96.5t96.5 40.5q55 0 95 -40.5t40 -96.5q0 -57 -39.5 -97.5t-95.5 -40.5q-57 0 -96.5 40.5t-39.5 97.5zM100 836q0 56 39.5 96.5t96.5 40.5q55 0 95 -40.5t40 -96.5q0 -57 -39.5 -97.5t-95.5 -40.5q-57 0 -96.5 40.5t-39.5 97.5z" />
<glyph unicode=";" horiz-adv-x="509" d="M59 -233l136 438h227l-236 -438h-127zM184 836q0 56 39.5 96.5t95.5 40.5q55 0 95.5 -40.5t40.5 -96.5q0 -57 -40 -97.5t-96 -40.5q-57 0 -96 40.5t-39 97.5z" />
<glyph unicode="=" horiz-adv-x="1048" d="M0 319v177h1049v-177h-1049zM0 698v176h1049v-176h-1049z" />
<glyph unicode="?" horiz-adv-x="1157" d="M139 1014q0 187 120 315.5t314 128.5q197 0 324 -125.5t127 -312.5q0 -88 -34 -163.5t-82 -130t-96 -107.5t-82 -120t-34 -143h-198q0 67 17.5 127t46 106t63 88.5t68.5 82.5t62.5 78.5t46 85.5t17.5 96q0 103 -68 173.5t-178 70.5q-105 0 -169 -73t-64 -177h-201z M455 111q0 56 39.5 96.5t95.5 40.5q55 0 95 -40.5t40 -96.5q0 -57 -39.5 -97.5t-95.5 -40.5q-57 0 -96 40.5t-39 97.5z" />
<glyph unicode="@" horiz-adv-x="1490" d="M66 414q0 225 109 416t300.5 304t421.5 113q120 0 237 -33t203 -92v-1122h-473q-167 0 -286 123.5t-119 292.5q0 166 118.5 285.5t286.5 119.5h269v174q-112 47 -236 47q-171 0 -313.5 -86t-222.5 -230t-80 -312q0 -125 49 -239.5t131.5 -197t196.5 -131.5t239 -49v-205 q-160 0 -311.5 63.5t-266 171.5t-184 262t-69.5 325zM680 414q0 -90 64 -149.5t157 -59.5h232v420h-232q-93 0 -157 -60t-64 -151z" />
<glyph unicode="A" horiz-adv-x="1273" d="M31 0l606 1460l606 -1460h-221l-148 358h-475l-147 -358h-221zM469 543h336l-168 428z" />
<glyph unicode="B" horiz-adv-x="1204" d="M154 0v1434h546q160 0 273.5 -113.5t113.5 -273.5q0 -158 -147 -289q87 -47 138.5 -136.5t51.5 -201.5q0 -172 -123 -296t-296 -124h-557zM362 184h314q96 0 166.5 71t70.5 165q0 98 -69.5 167.5t-167.5 69.5h-314v-473zM362 842h304q86 0 145 58.5t59 143.5 q0 86 -59 145.5t-145 59.5h-304v-407z" />
<glyph unicode="C" horiz-adv-x="1159" d="M66 715q0 152 58 289.5t156 237t234.5 158t286.5 58.5q130 0 254 -45v-233q-118 73 -254 73q-138 0 -255.5 -72t-186 -196t-68.5 -270q0 -145 68.5 -269t186 -196t255.5 -72t254 72v-232q-124 -45 -254 -45q-201 0 -370 99.5t-267 270t-98 372.5z" />
<glyph unicode="D" horiz-adv-x="1417" d="M154 0v1434h501q142 0 270.5 -57t221.5 -153t148 -228.5t55 -278.5q0 -195 -90.5 -359.5t-250.5 -261t-354 -96.5h-501zM362 184h269q143 0 259 72t179.5 193.5t63.5 267.5q0 145 -64 267t-180 193.5t-258 71.5h-269v-1065z" />
<glyph unicode="E" horiz-adv-x="1099" d="M154 0v1434h835v-201h-627v-346h599v-197h-599v-485h639v-205h-847z" />
<glyph unicode="F" horiz-adv-x="1099" d="M154 0v1434h835v-201h-627v-379h599v-197h-599v-657h-208z" />
<glyph unicode="G" horiz-adv-x="1622" d="M66 715q0 152 58 289.5t156 237t234.5 158t286.5 58.5q177 0 331.5 -80t256.5 -217q-11 -9 -29 -22.5t-56.5 -43t-64 -49t-25.5 -18.5q-71 104 -179.5 164.5t-233.5 60.5q-138 0 -255.5 -72t-186 -196t-68.5 -270q0 -145 68.5 -269t186 -196t255.5 -72q216 0 357.5 127.5 t152.5 329.5h-529v192h746q8 -49 8 -112q0 -152 -55 -288.5t-151.5 -236.5t-234 -158.5t-294.5 -58.5q-201 0 -370 99.5t-267 270t-98 372.5z" />
<glyph unicode="H" horiz-adv-x="1284" d="M154 0v1434h208v-617h560v617h208v-1434h-208v633h-560v-633h-208z" />
<glyph unicode="I" horiz-adv-x="516" d="M154 0v1434h208v-1434h-208z" />
<glyph unicode="J" horiz-adv-x="976" d="M43 399h209q0 -111 49.5 -164t130.5 -53q76 0 129 54t53 129v1069h209v-1067q0 -164 -114 -279t-277 -115q-167 0 -278 114.5t-111 311.5z" />
<glyph unicode="K" horiz-adv-x="1159" d="M154 0v1434h208v-652l478 652h239l-489 -662l532 -772h-264l-397 600l-99 -133v-467h-208z" />
<glyph unicode="L" horiz-adv-x="997" d="M154 0v1434h208v-1229h586v-205h-794z" />
<glyph unicode="M" horiz-adv-x="1679" d="M80 0l270 1460l479 -1005l480 1005l270 -1460h-217l-141 809l-392 -836l-391 836l-141 -809h-217z" />
<glyph unicode="N" horiz-adv-x="1409" d="M143 0v1434h193l733 -904v904h197v-1459l-926 1106v-1081h-197z" />
<glyph unicode="O" horiz-adv-x="1601" d="M66 715q0 152 58 289.5t156 237t234.5 158t286.5 58.5t286.5 -58.5t234.5 -158t156 -237t58 -289.5q0 -202 -98 -372.5t-267 -270t-370 -99.5t-370 99.5t-267 270t-98 372.5zM291 715q0 -145 68.5 -269t186 -196t255.5 -72t255.5 72t186 196t68.5 269q0 146 -68.5 270 t-186 196t-255.5 72t-255.5 -72t-186 -196t-68.5 -270z" />
<glyph unicode="P" horiz-adv-x="1198" d="M154 0v1434h505q129 0 238 -64.5t172.5 -174.5t63.5 -239q0 -130 -63.5 -239.5t-172.5 -172.5t-238 -63h-297v-481h-208zM362 666h269q134 0 209 80t75 210q0 122 -82.5 207.5t-201.5 85.5h-269v-583z" />
<glyph unicode="Q" horiz-adv-x="1605" d="M68 715q0 152 58 289.5t156 237t234.5 158t286.5 58.5t286.5 -58.5t234.5 -158t156 -237t58 -289.5q0 -185 -84 -345.5t-229.5 -263.5t-323.5 -126v-289h-196v289q-178 23 -323.5 126t-229.5 263.5t-84 345.5zM293 715q0 -193 118 -342t294 -185v195h196v-195 q176 36 294 185t118 342q0 146 -68.5 270t-186 196t-255.5 72t-255.5 -72t-186 -196t-68.5 -270z" />
<glyph unicode="R" horiz-adv-x="1277" d="M154 0v1434h464q151 0 274 -65t194 -181.5t71 -261.5q0 -143 -71.5 -253.5t-167.5 -160.5q125 -72 182 -191.5t57 -261.5v-59h-213v59q0 61 -22 123.5t-62 116t-103.5 87.5t-138.5 34h-253v-420h-211zM365 604h278q124 0 210.5 99t86.5 223q0 128 -86 225.5t-211 97.5 h-278v-645z" />
<glyph unicode="S" horiz-adv-x="1169" d="M72 1034q0 165 116 282.5t281 117.5h457v-195h-432q-86 0 -147.5 -61.5t-61.5 -147.5t61.5 -147.5t147.5 -61.5h211q168 0 286.5 -119.5t118.5 -285.5q0 -169 -119 -292.5t-286 -123.5h-555v205h518q93 0 157 59.5t64 149.5q0 91 -64 151t-157 60h-199 q-164 0 -280.5 121.5t-116.5 287.5z" />
<glyph unicode="T" horiz-adv-x="1028" d="M55 1233v201h918v-201h-355v-1233h-208v1233h-355z" />
<glyph unicode="U" horiz-adv-x="1271" d="M154 457v977h208v-977q0 -116 83 -199.5t200 -83.5t201 83.5t84 199.5v977h209v-977q0 -133 -66.5 -244.5t-180.5 -175.5t-249 -64q-204 0 -346.5 141t-142.5 343z" />
<glyph unicode="V" horiz-adv-x="1253" d="M37 1434h219l371 -912l370 912h220l-590 -1459z" />
<glyph unicode="W" horiz-adv-x="1642" d="M37 1434h219l371 -912l84 203l-285 709h219l371 -912l370 912h220l-590 -1459l-195 480l-194 -480z" />
<glyph unicode="X" horiz-adv-x="1099" d="M53 0l396 770l-340 664h223l219 -433l219 433h223l-340 -664l396 -770h-222l-276 535l-277 -535h-221z" />
<glyph unicode="Y" horiz-adv-x="1163" d="M35 1434h231l316 -623l315 623h231l-442 -830v-604h-209v604z" />
<glyph unicode="Z" horiz-adv-x="1034" d="M49 0l578 1233h-500v201h834l-582 -1229h579v-205h-909z" />
<glyph unicode="[" horiz-adv-x="645" d="M133 -260v1726h389v-172h-184v-1382h184v-172h-389z" />
<glyph unicode="\" horiz-adv-x="1093" d="M76 1434l170 75l772 -1781l-168 -76z" />
<glyph unicode="]" horiz-adv-x="645" d="M123 -88h184v1382h-184v172h389v-1726h-389v172z" />
<glyph unicode="_" horiz-adv-x="1310" d="M39 -139h1231v-140h-1231v140z" />
<glyph unicode="`" horiz-adv-x="468" d="M37 1346h201l194 -267h-143z" />
<glyph unicode="a" horiz-adv-x="901" d="M14 0l437 987l436 -987h-207l-70 170h-317l-72 -170h-207zM352 344h197l-98 231z" />
<glyph unicode="b" horiz-adv-x="933" d="M123 0v963h467q107 0 183.5 -74.5t76.5 -183.5q0 -105 -100 -193q59 -32 96 -92.5t37 -134.5q0 -116 -85.5 -200.5t-201.5 -84.5h-473zM319 184h234q48 0 81.5 34t33.5 83q0 47 -34 82t-81 35h-234v-234zM319 594h226q40 0 68 28t28 66t-28 66t-68 28h-226v-188z" />
<glyph unicode="c" horiz-adv-x="788" d="M43 477q0 139 69 256t186 184.5t255 67.5q85 0 162 -27v-210q-73 47 -162 47q-128 0 -215.5 -93t-87.5 -225q0 -130 87.5 -222.5t215.5 -92.5q92 0 162 47v-211q-86 -27 -162 -27q-137 0 -254.5 67.5t-186.5 184t-69 254.5z" />
<glyph unicode="d" horiz-adv-x="1071" d="M123 0v963h438q127 0 234.5 -64t170 -174.5t62.5 -241.5t-61 -242t-168.5 -176t-237.5 -65h-438zM319 184h189q130 0 214.5 86.5t84.5 212.5t-84.5 212.5t-214.5 86.5h-189v-598z" />
<glyph unicode="e" horiz-adv-x="770" d="M123 0v963h569v-185h-373v-184h353v-180h-353v-230h381v-184h-577z" />
<glyph unicode="f" horiz-adv-x="770" d="M123 0v963h569v-185h-373v-205h353v-180h-353v-393h-196z" />
<glyph unicode="g" horiz-adv-x="1095" d="M43 477q0 139 69 256t186 184.5t255 67.5q262 0 408 -199l-162 -118q-40 59 -105 93t-141 34q-128 0 -215.5 -93t-87.5 -225q0 -130 87.5 -222.5t215.5 -92.5q104 0 180.5 59t108.5 152h-301v180h518q6 -37 6 -76q0 -137 -69 -253.5t-187 -184.5t-256 -68 q-137 0 -254.5 68t-186.5 184.5t-69 253.5z" />
<glyph unicode="h" horiz-adv-x="1015" d="M123 0v963h196v-392h377v392h197v-963h-197v399h-377v-399h-196z" />
<glyph unicode="i" horiz-adv-x="442" d="M123 0v963h196v-963h-196z" />
<glyph unicode="j" horiz-adv-x="800" d="M39 309h197q0 -74 33.5 -110.5t86.5 -36.5q52 0 88.5 36.5t36.5 86.5v678h197v-668q0 -132 -94.5 -227t-227.5 -95t-225 94t-92 242z" />
<glyph unicode="k" horiz-adv-x="903" d="M123 0v963h196v-414l291 414h221l-315 -428l383 -535h-248l-256 373l-76 -101v-272h-196z" />
<glyph unicode="l" horiz-adv-x="770" d="M123 0v963h196v-779h394v-184h-590z" />
<glyph unicode="m" horiz-adv-x="1187" d="M74 0l192 987l328 -641l328 641l192 -987h-184l-88 461l-248 -486l-248 486l-88 -461h-184z" />
<glyph unicode="n" horiz-adv-x="1021" d="M123 0v963h172l420 -492v492h184v-988l-592 711v-686h-184z" />
<glyph unicode="o" d="M43 477q0 139 69 256t186 184.5t255 67.5t256 -67.5t187 -184.5t69 -256q0 -137 -69 -253.5t-187 -184.5t-256 -68q-137 0 -254.5 68t-186.5 184.5t-69 253.5zM250 477q0 -130 87.5 -222.5t215.5 -92.5q129 0 217 92.5t88 222.5q0 132 -88 225t-217 93q-128 0 -215.5 -93 t-87.5 -225z" />
<glyph unicode="p" horiz-adv-x="892" d="M123 0v963h424q131 0 224 -94.5t93 -225.5q0 -135 -93 -233.5t-224 -98.5h-228v-311h-196zM319 492h191q60 0 102.5 42.5t42.5 102.5t-42.5 102.5t-102.5 42.5h-191v-290z" />
<glyph unicode="q" d="M43 477q0 139 69 256t186 184.5t255 67.5t256 -67.5t187 -184.5t69 -256q0 -188 -124 -330t-308 -170v-198h-158v198q-184 28 -308 170t-124 330zM250 477q0 -109 62.5 -194t162.5 -111v139h158v-139q100 26 162.5 111t62.5 194q0 132 -88 225t-217 93q-128 0 -215.5 -93 t-87.5 -225z" />
<glyph unicode="r" horiz-adv-x="923" d="M123 0v963h424q131 0 224 -94.5t93 -225.5q0 -87 -41.5 -169.5t-109.5 -133.5q75 -38 113 -116.5t38 -168.5v-55h-196v45q0 88 -60 163t-159 75h-130v-283h-196zM319 463h177q66 0 112.5 47t46.5 113q0 65 -46.5 112t-112.5 47h-177v-319z" />
<glyph unicode="s" horiz-adv-x="804" d="M53 684q0 117 81.5 198t197.5 81h297v-177h-285q-41 0 -70.5 -29.5t-29.5 -70.5t29.5 -70.5t70.5 -29.5h115q123 0 208 -85t85 -208q0 -115 -89.5 -204t-203.5 -89h-353v176h338q47 0 81 34t34 81t-34 81t-81 34h-112q-116 0 -197.5 81.5t-81.5 196.5z" />
<glyph unicode="t" horiz-adv-x="790" d="M59 774v189h668v-189h-233v-774h-197v774h-238z" />
<glyph unicode="u" horiz-adv-x="913" d="M123 317v646h196v-654q0 -61 43 -104t105 -43q61 0 104 43t43 104v654h197v-646q0 -143 -100.5 -243.5t-243.5 -100.5t-243.5 100.5t-100.5 243.5z" />
<glyph unicode="v" horiz-adv-x="880" d="M27 963h196l217 -551l217 551h197l-414 -988z" />
<glyph unicode="w" horiz-adv-x="1220" d="M29 963h196l248 -592l66 166l-172 426h194l217 -592l217 592h197l-414 -988l-160 369l-153 -369z" />
<glyph unicode="x" horiz-adv-x="868" d="M31 0l266 516l-229 447h219l147 -289l148 289h219l-230 -447l267 -516h-220l-184 360l-184 -360h-219z" />
<glyph unicode="y" horiz-adv-x="884" d="M29 963h219l194 -383l195 383h219l-315 -557v-406h-197v406z" />
<glyph unicode="z" horiz-adv-x="886" d="M31 0l469 782h-402v181h742l-469 -779h436v-184h-776z" />
<glyph unicode="{" horiz-adv-x="624" d="M47 526v152q90 0 122 47t32 166v399q0 73 51 124.5t123 51.5h180v-172h-82q-26 0 -44.5 -18.5t-18.5 -44.5v-340q0 -247 -156 -289q156 -42 156 -289v-340q0 -26 18.5 -44.5t44.5 -18.5h82v-172h-180q-72 0 -123 51.5t-51 124.5v399q0 119 -32 166t-122 47z" />
<glyph unicode="|" horiz-adv-x="616" d="M205 -406v1942h207v-1942h-207z" />
<glyph unicode="}" horiz-adv-x="624" d="M70 -90h82q26 0 44.5 18.5t18.5 44.5v340q0 247 156 289q-156 42 -156 289v340q0 26 -18.5 44.5t-44.5 18.5h-82v172h180q72 0 123 -51.5t51 -124.5v-399q0 -119 32 -166t122 -47v-152q-90 0 -122 -47t-32 -166v-399q0 -73 -51 -124.5t-123 -51.5h-180v172z" />
<glyph unicode="&#xa1;" horiz-adv-x="638" d="M195 848q0 57 39 97t96 40q56 0 95.5 -40t39.5 -97q0 -56 -40 -96.5t-95 -40.5q-56 0 -95.5 40.5t-39.5 96.5zM238 -475v1071h184v-1071h-184z" />
<glyph unicode="&#xa2;" horiz-adv-x="788" d="M43 477q0 189 123.5 330.5t306.5 171.5v215h111v-211q63 -3 131 -25v-219q-62 49 -162 49q-125 0 -211 -91t-86 -220q0 -127 86 -218t211 -91q96 0 162 49v-219q-82 -23 -131 -25v-227h-111v231q-183 28 -306.5 169.5t-123.5 330.5z" />
<glyph unicode="&#xa3;" horiz-adv-x="1175" d="M92 0v205h113v446h-76v185h76v221q0 159 117 280t286 121q93 0 169.5 -29t124.5 -78.5t75 -111t29 -129.5h-197q-5 56 -55 104t-140 48q-91 0 -149.5 -62.5t-58.5 -148.5v-215h454v-185h-454v-446h331q71 0 120.5 49.5t49.5 120.5q-2 46 -18 104h209q12 -60 12 -112 q0 -168 -113 -267.5t-313 -99.5h-592z" />
<glyph unicode="&#xa5;" horiz-adv-x="1163" d="M35 1434h231l316 -623l315 623h231l-362 -678h340v-176h-420v-134h420v-176h-420v-270h-209v270h-420v176h420v134h-420v176h338z" />
<glyph unicode="&#xa7;" horiz-adv-x="1185" d="M90 492q0 198 180 311q-60 43 -99.5 117t-39.5 165q0 160 112 274t273 114h402v-179h-375q-88 0 -147.5 -60.5t-59.5 -148.5t59.5 -147t147.5 -59h159q164 0 279 -115t115 -277q0 -95 -45 -173.5t-111 -125.5q156 -106 156 -297q0 -163 -115 -273t-279 -110h-450v179h416 q90 0 152.5 57.5t62.5 144.5q0 88 -62.5 146.5t-152.5 58.5h-193q-160 0 -272.5 118.5t-112.5 279.5zM295 487q0 -83 60 -142.5t143 -59.5h184q83 0 142 59.5t59 142.5t-59 142t-142 59h-184q-83 0 -143 -59t-60 -142z" />
<glyph unicode="&#xa8;" horiz-adv-x="927" d="M195 1180q0 40 28.5 70t69.5 30q40 0 69 -30t29 -70q0 -41 -29 -71t-69 -30q-41 0 -69.5 29.5t-28.5 71.5zM578 1180q0 40 28.5 70t69.5 30q40 0 69 -30t29 -70q0 -41 -29 -71t-69 -30q-41 0 -69.5 29.5t-28.5 71.5z" />
<glyph unicode="&#xa9;" horiz-adv-x="1597" d="M63 715q0 153 58 291t156 237t234.5 157t287.5 58q202 0 371 -98.5t266.5 -269t97.5 -375.5q0 -102 -26 -198.5t-73 -178t-114.5 -149.5t-148.5 -115.5t-176.5 -74t-196.5 -26.5q-202 0 -371 98.5t-267 269t-98 374.5zM201 715q0 -169 79.5 -310.5t217 -223t301.5 -81.5 t301.5 81.5t217 223t79.5 310.5q0 171 -79.5 312.5t-216.5 222.5t-302 81t-302 -81t-216.5 -222.5t-79.5 -312.5zM401 721q0 179 123.5 303.5t300.5 124.5q76 0 146 -25v-135q-65 41 -146 41q-122 0 -208.5 -91t-86.5 -218t86.5 -218t208.5 -91q81 0 146 41v-136 q-67 -24 -146 -24q-177 0 -300.5 124.5t-123.5 303.5z" />
<glyph unicode="&#xaa;" horiz-adv-x="542" d="M8 887l262 573l262 -573h-133l-47 106h-164l-47 -106h-133zM217 1092h107l-54 127z" />
<glyph unicode="&#xab;" horiz-adv-x="1036" d="M88 514l311 424h176l-309 -424l309 -424h-176zM459 514l311 424h176l-309 -424l309 -424h-176z" />
<glyph unicode="&#xad;" horiz-adv-x="759" d="M106 412v180h545v-180h-545z" />
<glyph unicode="&#xae;" horiz-adv-x="690" d="M63 1176q0 118 82 200t199 82t199 -82t82 -200t-82 -200.5t-199 -82.5t-199 82.5t-82 200.5zM121 1176q0 -98 64 -165t159 -67t159 67t64 165t-64 164.5t-159 66.5t-159 -66.5t-64 -164.5zM236 1014v327h114q53 0 88 -32.5t35 -83.5q0 -33 -16 -58t-39 -37 q55 -31 55 -102v-14h-53v14q0 29 -20.5 55.5t-53.5 26.5h-57v-96h-53zM289 1153h63q29 0 48.5 21.5t19.5 50.5q0 30 -19.5 50.5t-48.5 20.5h-63v-143z" />
<glyph unicode="&#xaf;" horiz-adv-x="817" d="M154 1112v150h510v-150h-510z" />
<glyph unicode="&#xb0;" horiz-adv-x="729" d="M90 1182q0 116 80 196t195 80t194.5 -80t79.5 -196t-79.5 -196.5t-194.5 -80.5t-195 80.5t-80 196.5zM205 1182q0 -70 46 -118t114 -48t113.5 48t45.5 118q0 72 -45.5 119t-113.5 47t-114 -47t-46 -119z" />
<glyph unicode="&#xb4;" horiz-adv-x="468" d="M37 1079l194 267h201l-252 -267h-143z" />
<glyph unicode="&#xb6;" horiz-adv-x="1198" d="M59 973q0 125 62.5 231.5t169 169t231.5 62.5h572v-166h-121v-1530h-164v1530h-123v-1530h-164v770q-125 0 -231.5 62.5t-169 169t-62.5 231.5z" />
<glyph unicode="&#xb7;" horiz-adv-x="471" d="M100 543q0 56 39.5 96.5t96.5 40.5q55 0 95 -40.5t40 -96.5q0 -57 -39.5 -97t-95.5 -40q-57 0 -96.5 40t-39.5 97z" />
<glyph unicode="&#xba;" horiz-adv-x="659" d="M39 1167q0 122 84.5 207.5t206.5 85.5t206.5 -85.5t84.5 -207.5q0 -121 -84.5 -205.5t-206.5 -84.5t-206.5 84.5t-84.5 205.5zM174 1167q0 -67 45.5 -116.5t110.5 -49.5q64 0 109.5 49.5t45.5 116.5q0 68 -45.5 117t-109.5 49q-65 0 -110.5 -49t-45.5 -117z" />
<glyph unicode="&#xbb;" horiz-adv-x="1036" d="M88 90l309 424l-309 424h176l311 -424l-311 -424h-176zM459 90l309 424l-309 424h176l311 -424l-311 -424h-176z" />
<glyph unicode="&#xbf;" horiz-adv-x="1157" d="M133 -61q0 88 34 163.5t82 130t96 107t82 119.5t34 143h198q0 -67 -17.5 -127t-46 -106t-63 -88.5t-68.5 -82t-62.5 -78.5t-46 -85.5t-17.5 -95.5q0 -103 68 -173.5t178 -70.5q105 0 169 73t64 177h201q0 -187 -120 -316t-314 -129q-197 0 -324 126t-127 313zM432 848 q0 57 39.5 97t95.5 40q57 0 96 -40t39 -97q0 -56 -39.5 -96.5t-95.5 -40.5q-55 0 -95 40.5t-40 96.5z" />
<glyph unicode="&#xc0;" horiz-adv-x="1273" d="M31 0l606 1460l606 -1460h-221l-148 358h-475l-147 -358h-221zM334 1802h201l194 -266h-143zM469 543h336l-168 428z" />
<glyph unicode="&#xc1;" horiz-adv-x="1273" d="M31 0l606 1460l606 -1460h-221l-148 358h-475l-147 -358h-221zM469 543h336l-168 428zM526 1536l195 266h201l-252 -266h-144z" />
<glyph unicode="&#xc2;" horiz-adv-x="1273" d="M31 0l606 1460l606 -1460h-221l-148 358h-475l-147 -358h-221zM434 1526v160l205 122l203 -122v-160l-203 123zM469 543h336l-168 428z" />
<glyph unicode="&#xc3;" horiz-adv-x="1273" d="M31 0l606 1460l606 -1460h-221l-148 358h-475l-147 -358h-221zM346 1593q49 138 197 138q39 0 100 -20.5t90 -20.5q65 0 94 63l103 -61q-49 -138 -197 -138q-33 0 -95 20.5t-95 20.5q-65 0 -94 -63zM469 543h336l-168 428z" />
<glyph unicode="&#xc4;" horiz-adv-x="1273" d="M31 0l606 1460l606 -1460h-221l-148 358h-475l-147 -358h-221zM348 1636q0 40 28.5 70.5t69.5 30.5q40 0 69.5 -30.5t29.5 -70.5q0 -41 -29.5 -70.5t-69.5 -29.5q-41 0 -69.5 29.5t-28.5 70.5zM469 543h336l-168 428zM731 1636q0 40 28.5 70.5t69.5 30.5q40 0 69.5 -30.5 t29.5 -70.5q0 -41 -29.5 -70.5t-69.5 -29.5q-41 0 -69.5 29.5t-28.5 70.5z" />
<glyph unicode="&#xc5;" horiz-adv-x="1273" d="M31 0l606 1460l606 -1460h-221l-148 358h-475l-147 -358h-221zM438 1737q0 83 58 140.5t141 57.5q84 0 142.5 -57.5t58.5 -140.5q0 -84 -58.5 -142.5t-142.5 -58.5q-83 0 -141 58t-58 143zM469 543h336l-168 428zM541 1735q0 -39 28.5 -67t67.5 -28t67.5 28t28.5 67 q0 42 -28 69t-68 27q-42 0 -69 -27t-27 -69z" />
<glyph unicode="&#xc6;" horiz-adv-x="1665" d="M29 0l600 1434h936v-201h-840l147 -346h693v-197h-609l205 -485h404v-205h-545l-150 358h-471l-149 -358h-221zM479 563h312l-156 387z" />
<glyph unicode="&#xc7;" horiz-adv-x="1161" d="M66 715q0 152 58 289.5t156 237t234.5 158t286.5 58.5q130 0 254 -45v-233q-118 73 -254 73q-138 0 -255.5 -72t-186 -196t-68.5 -270q0 -154 76.5 -282t203.5 -197l99 145l147 -100l-65 -101q16 -2 49 -2q138 0 254 72v-232q-124 -45 -254 -45q-86 0 -180 23l-181 -260 l-147 100l158 225q-175 95 -280 270t-105 384z" />
<glyph unicode="&#xc8;" horiz-adv-x="1103" d="M158 0v1434h835v-201h-626v-346h598v-197h-598v-485h639v-205h-848zM385 1802h201l194 -266h-143z" />
<glyph unicode="&#xc9;" horiz-adv-x="1103" d="M158 0v1434h835v-201h-626v-346h598v-197h-598v-485h639v-205h-848zM477 1536l195 266h200l-251 -266h-144z" />
<glyph unicode="&#xca;" horiz-adv-x="1103" d="M158 0v1434h835v-201h-626v-346h598v-197h-598v-485h639v-205h-848zM395 1526v160l205 122l203 -122v-160l-203 123z" />
<glyph unicode="&#xcb;" horiz-adv-x="1103" d="M158 0v1434h835v-201h-626v-346h598v-197h-598v-485h639v-205h-848zM299 1636q0 40 28.5 70.5t69.5 30.5q40 0 69.5 -30.5t29.5 -70.5q0 -41 -29.5 -70.5t-69.5 -29.5q-41 0 -69.5 29.5t-28.5 70.5zM682 1636q0 40 28.5 70.5t69.5 30.5q40 0 69.5 -30.5t29.5 -70.5 q0 -41 -29.5 -70.5t-69.5 -29.5q-41 0 -69.5 29.5t-28.5 70.5z" />
<glyph unicode="&#xcc;" horiz-adv-x="516" d="M-18 1804h200l195 -266h-144zM154 0v1434h208v-1434h-208z" />
<glyph unicode="&#xcd;" horiz-adv-x="516" d="M127 1536l195 266h200l-252 -266h-143zM154 0v1434h208v-1434h-208z" />
<glyph unicode="&#xce;" horiz-adv-x="516" d="M55 1526v160l205 122l203 -122v-160l-203 123zM154 0v1434h208v-1434h-208z" />
<glyph unicode="&#xcf;" horiz-adv-x="516" d="M-31 1636q0 40 29 70.5t70 30.5q39 0 68.5 -30.5t29.5 -70.5q0 -41 -29 -70.5t-69 -29.5q-41 0 -70 29.5t-29 70.5zM154 0v1434h208v-1434h-208zM352 1636q0 40 29 70.5t70 30.5q39 0 68.5 -30.5t29.5 -70.5q0 -41 -29 -70.5t-69 -29.5q-41 0 -70 29.5t-29 70.5z" />
<glyph unicode="&#xd0;" horiz-adv-x="1413" d="M45 676v180h109v578h501q142 0 270.5 -57t221.5 -153t148 -228.5t55 -278.5q0 -195 -90.5 -359.5t-250.5 -261t-354 -96.5h-501v676h-109zM362 184h269q143 0 259 72t179.5 193.5t63.5 267.5q0 145 -64 267t-180 193.5t-258 71.5h-269v-393h271v-180h-271v-492z" />
<glyph unicode="&#xd1;" horiz-adv-x="1433" d="M143 0v1434h193l733 -904v904h197v-1459l-926 1106v-1081h-197zM420 1593q49 138 196 138q39 0 100.5 -20.5t90.5 -20.5q65 0 94 63l103 -61q-49 -138 -197 -138q-33 0 -95.5 20.5t-95.5 20.5q-65 0 -94 -63z" />
<glyph unicode="&#xd2;" horiz-adv-x="1601" d="M66 715q0 152 58 289.5t156 237t234.5 158t286.5 58.5t286.5 -58.5t234.5 -158t156 -237t58 -289.5q0 -202 -98 -372.5t-267 -270t-370 -99.5t-370 99.5t-267 270t-98 372.5zM291 715q0 -145 68.5 -269t186 -196t255.5 -72t255.5 72t186 196t68.5 269q0 146 -68.5 270 t-186 196t-255.5 72t-255.5 -72t-186 -196t-68.5 -270zM530 1802h201l195 -266h-144z" />
<glyph unicode="&#xd3;" horiz-adv-x="1601" d="M66 715q0 152 58 289.5t156 237t234.5 158t286.5 58.5t286.5 -58.5t234.5 -158t156 -237t58 -289.5q0 -202 -98 -372.5t-267 -270t-370 -99.5t-370 99.5t-267 270t-98 372.5zM291 715q0 -145 68.5 -269t186 -196t255.5 -72t255.5 72t186 196t68.5 269q0 146 -68.5 270 t-186 196t-255.5 72t-255.5 -72t-186 -196t-68.5 -270zM657 1536l195 266h201l-252 -266h-144z" />
<glyph unicode="&#xd4;" horiz-adv-x="1601" d="M66 715q0 152 58 289.5t156 237t234.5 158t286.5 58.5t286.5 -58.5t234.5 -158t156 -237t58 -289.5q0 -202 -98 -372.5t-267 -270t-370 -99.5t-370 99.5t-267 270t-98 372.5zM291 715q0 -145 68.5 -269t186 -196t255.5 -72t255.5 72t186 196t68.5 269q0 146 -68.5 270 t-186 196t-255.5 72t-255.5 -72t-186 -196t-68.5 -270zM596 1495v160l205 123l203 -123v-160l-203 123z" />
<glyph unicode="&#xd5;" horiz-adv-x="1601" d="M66 715q0 152 58 289.5t156 237t234.5 158t286.5 58.5t286.5 -58.5t234.5 -158t156 -237t58 -289.5q0 -202 -98 -372.5t-267 -270t-370 -99.5t-370 99.5t-267 270t-98 372.5zM291 715q0 -145 68.5 -269t186 -196t255.5 -72t255.5 72t186 196t68.5 269q0 146 -68.5 270 t-186 196t-255.5 72t-255.5 -72t-186 -196t-68.5 -270zM508 1593q49 138 197 138q39 0 100 -20.5t90 -20.5q65 0 94 63l103 -61q-49 -138 -197 -138q-33 0 -95 20.5t-95 20.5q-66 0 -95 -63z" />
<glyph unicode="&#xd6;" horiz-adv-x="1601" d="M66 715q0 152 58 289.5t156 237t234.5 158t286.5 58.5t286.5 -58.5t234.5 -158t156 -237t58 -289.5q0 -202 -98 -372.5t-267 -270t-370 -99.5t-370 99.5t-267 270t-98 372.5zM291 715q0 -145 68.5 -269t186 -196t255.5 -72t255.5 72t186 196t68.5 269q0 146 -68.5 270 t-186 196t-255.5 72t-255.5 -72t-186 -196t-68.5 -270zM510 1636q0 40 28.5 70.5t69.5 30.5q40 0 69.5 -30.5t29.5 -70.5q0 -41 -29.5 -70.5t-69.5 -29.5q-41 0 -69.5 29.5t-28.5 70.5zM893 1636q0 40 28.5 70.5t69.5 30.5q40 0 69.5 -30.5t29.5 -70.5q0 -41 -29.5 -70.5 t-69.5 -29.5q-41 0 -69.5 29.5t-28.5 70.5z" />
<glyph unicode="&#xd7;" horiz-adv-x="1112" d="M125 860l113 121l307 -317l311 317l113 -121l-314 -313l308 -318l-123 -114l-293 307l-293 -307l-123 114l301 312z" />
<glyph unicode="&#xd8;" horiz-adv-x="1603" d="M68 51l178 178q-178 206 -178 486q0 152 58 289.5t156 237t234.5 158t286.5 58.5q139 0 265 -49.5t224 -140.5l164 164l82 -80l-166 -166q166 -210 166 -471q0 -202 -98 -372.5t-267 -270t-370 -99.5q-271 0 -477 174l-176 -176zM293 715q0 -187 108 -330l740 731 q-143 137 -338 137q-138 0 -255.5 -72t-186 -196t-68.5 -270zM479 299q140 -121 324 -121q138 0 255.5 72t186 196t68.5 269q0 169 -99 315z" />
<glyph unicode="&#xd9;" horiz-adv-x="1271" d="M154 457v977h208v-977q0 -116 83 -199.5t200 -83.5t201 83.5t84 199.5v977h209v-977q0 -133 -66.5 -244.5t-180.5 -175.5t-249 -64q-204 0 -346.5 141t-142.5 343zM426 1802h201l194 -266h-143z" />
<glyph unicode="&#xda;" horiz-adv-x="1271" d="M154 457v977h208v-977q0 -116 83 -199.5t200 -83.5t201 83.5t84 199.5v977h209v-977q0 -133 -66.5 -244.5t-180.5 -175.5t-249 -64q-204 0 -346.5 141t-142.5 343zM506 1536l194 266h201l-252 -266h-143z" />
<glyph unicode="&#xdb;" horiz-adv-x="1271" d="M154 457v977h208v-977q0 -116 83 -199.5t200 -83.5t201 83.5t84 199.5v977h209v-977q0 -133 -66.5 -244.5t-180.5 -175.5t-249 -64q-204 0 -346.5 141t-142.5 343zM451 1526v160l204 122l203 -122v-160l-203 123z" />
<glyph unicode="&#xdc;" horiz-adv-x="1271" d="M154 457v977h208v-977q0 -116 83 -199.5t200 -83.5t201 83.5t84 199.5v977h209v-977q0 -133 -66.5 -244.5t-180.5 -175.5t-249 -64q-204 0 -346.5 141t-142.5 343zM356 1636q0 40 29 70.5t70 30.5q39 0 68.5 -30.5t29.5 -70.5q0 -41 -29 -70.5t-69 -29.5q-41 0 -70 29.5 t-29 70.5zM739 1636q0 40 29 70.5t70 30.5q39 0 68.5 -30.5t29.5 -70.5q0 -41 -29 -70.5t-69 -29.5q-41 0 -70 29.5t-29 70.5z" />
<glyph unicode="&#xdd;" horiz-adv-x="1163" d="M35 1434h231l316 -623l315 623h231l-442 -830v-604h-209v604zM479 1538l195 266h200l-251 -266h-144z" />
<glyph unicode="&#xde;" horiz-adv-x="1198" d="M154 0v1434h208v-177h297q129 0 238 -64t172.5 -174t63.5 -239q0 -130 -63.5 -239.5t-172.5 -172.5t-238 -63h-297v-305h-208zM362 489h269q134 0 209 80t75 211q0 122 -82.5 207.5t-201.5 85.5h-269v-584z" />
<glyph unicode="&#xe0;" horiz-adv-x="901" d="M14 0l437 987l436 -987h-207l-70 170h-317l-72 -170h-207zM168 1346h201l194 -267h-143zM352 344h197l-98 231z" />
<glyph unicode="&#xe1;" horiz-adv-x="901" d="M14 0l437 987l436 -987h-207l-70 170h-317l-72 -170h-207zM334 1079l194 267h201l-252 -267h-143zM352 344h197l-98 231z" />
<glyph unicode="&#xe2;" horiz-adv-x="901" d="M14 0l437 987l436 -987h-207l-70 170h-317l-72 -170h-207zM248 1053v159l205 123l202 -123v-159l-202 123zM352 344h197l-98 231z" />
<glyph unicode="&#xe3;" horiz-adv-x="901" d="M14 0l437 987l436 -987h-207l-70 170h-317l-72 -170h-207zM158 1155q49 137 196 137q39 0 100.5 -20.5t90.5 -20.5q64 0 94 64l102 -62q-49 -137 -196 -137q-33 0 -95.5 20.5t-95.5 20.5q-65 0 -94 -63zM352 344h197l-98 231z" />
<glyph unicode="&#xe4;" horiz-adv-x="901" d="M14 0l437 987l436 -987h-207l-70 170h-317l-72 -170h-207zM162 1180q0 40 28.5 70t69.5 30q40 0 69 -30t29 -70q0 -41 -29 -71t-69 -30q-41 0 -69.5 29.5t-28.5 71.5zM352 344h197l-98 231zM545 1180q0 40 28.5 70t69.5 30q40 0 69 -30t29 -70q0 -41 -29 -71t-69 -30 q-41 0 -69.5 29.5t-28.5 71.5z" />
<glyph unicode="&#xe5;" horiz-adv-x="901" d="M14 0l437 987l436 -987h-207l-70 170h-317l-72 -170h-207zM250 1270q0 83 58 140.5t141 57.5t141.5 -57.5t58.5 -140.5q0 -84 -58.5 -142.5t-141.5 -58.5t-141 58t-58 143zM352 344h197l-98 231zM352 1268q0 -38 28.5 -66t68.5 -28t68 28t28 66q0 42 -28 69t-68 27 q-42 0 -69.5 -27t-27.5 -69z" />
<glyph unicode="&#xe6;" horiz-adv-x="1118" d="M16 0l437 963h587v-185h-503l81 -184h402v-180h-320l105 -230h244v-184h-367l-70 170h-317l-72 -170h-207zM354 344h197l-98 225z" />
<glyph unicode="&#xe7;" horiz-adv-x="788" d="M43 477q0 139 69 256t186 184.5t255 67.5q85 0 162 -27v-210q-73 47 -162 47q-128 0 -215.5 -93t-87.5 -225q0 -146 106 -241l78 114l139 -96l-61 -90q12 -2 41 -2q92 0 162 47v-211q-86 -27 -162 -27q-81 0 -158 25l-141 -209l-139 96l131 191q-94 71 -148.5 176 t-54.5 227z" />
<glyph unicode="&#xe8;" horiz-adv-x="770" d="M123 0v963h569v-185h-373v-184h353v-180h-353v-230h381v-184h-577zM186 1346h201l195 -267h-144z" />
<glyph unicode="&#xe9;" horiz-adv-x="770" d="M123 0v963h569v-185h-373v-184h353v-180h-353v-230h381v-184h-577zM309 1079l195 267h201l-252 -267h-144z" />
<glyph unicode="&#xea;" horiz-adv-x="770" d="M123 0v963h569v-185h-373v-184h353v-180h-353v-230h381v-184h-577zM215 1053v159l205 123l203 -123v-159l-203 123z" />
<glyph unicode="&#xeb;" horiz-adv-x="770" d="M121 1180q0 40 28.5 70t69.5 30q40 0 69 -30t29 -70q0 -41 -29 -71t-69 -30q-41 0 -69.5 29.5t-28.5 71.5zM123 0v963h569v-185h-373v-184h353v-180h-353v-230h381v-184h-577zM504 1180q0 40 28.5 70t69.5 30q40 0 69 -30t29 -70q0 -41 -29 -71t-69 -30q-41 0 -69.5 29.5 t-28.5 71.5z" />
<glyph unicode="&#xec;" horiz-adv-x="442" d="M-41 1346h201l194 -267h-143zM123 0v963h196v-963h-196z" />
<glyph unicode="&#xed;" horiz-adv-x="442" d="M94 1079l195 267h200l-251 -267h-144zM123 0v963h196v-963h-196z" />
<glyph unicode="&#xee;" horiz-adv-x="442" d="M20 1053v159l205 123l203 -123v-159l-203 123zM123 0v963h196v-963h-196z" />
<glyph unicode="&#xef;" horiz-adv-x="442" d="M-68 1180q0 40 29 70t70 30q40 0 69 -30t29 -70q0 -41 -29 -71t-69 -30q-41 0 -70 30t-29 71zM123 0v963h196v-963h-196zM315 1180q0 40 29 70t70 30q40 0 69 -30t29 -70q0 -41 -29 -71t-69 -30q-41 0 -70 30t-29 71z" />
<glyph unicode="&#xf0;" horiz-adv-x="1071" d="M25 449v129h98v385h438q127 0 234.5 -64t170 -174.5t62.5 -241.5t-61 -242t-168.5 -176t-237.5 -65h-438v449h-98zM319 184h189q130 0 214.5 86.5t84.5 212.5t-84.5 212.5t-214.5 86.5h-189v-204h224v-129h-224v-265z" />
<glyph unicode="&#xf1;" horiz-adv-x="1021" d="M123 0v963h172l420 -492v492h184v-988l-592 711v-686h-184zM231 1155q49 137 197 137q39 0 100 -20.5t90 -20.5q65 0 95 64l102 -62q-49 -137 -197 -137q-33 0 -95 20.5t-95 20.5q-65 0 -94 -63z" />
<glyph unicode="&#xf2;" d="M43 477q0 139 69 256t186 184.5t255 67.5t256 -67.5t187 -184.5t69 -256q0 -137 -69 -253.5t-187 -184.5t-256 -68q-137 0 -254.5 68t-186.5 184.5t-69 253.5zM250 477q0 -130 87.5 -222.5t215.5 -92.5q129 0 217 92.5t88 222.5q0 132 -88 225t-217 93q-128 0 -215.5 -93 t-87.5 -225zM307 1346h201l194 -267h-143z" />
<glyph unicode="&#xf3;" d="M43 477q0 139 69 256t186 184.5t255 67.5t256 -67.5t187 -184.5t69 -256q0 -137 -69 -253.5t-187 -184.5t-256 -68q-137 0 -254.5 68t-186.5 184.5t-69 253.5zM250 477q0 -130 87.5 -222.5t215.5 -92.5q129 0 217 92.5t88 222.5q0 132 -88 225t-217 93q-128 0 -215.5 -93 t-87.5 -225zM422 1079l194 267h201l-252 -267h-143z" />
<glyph unicode="&#xf4;" d="M43 477q0 139 69 256t186 184.5t255 67.5t256 -67.5t187 -184.5t69 -256q0 -137 -69 -253.5t-187 -184.5t-256 -68q-137 0 -254.5 68t-186.5 184.5t-69 253.5zM250 477q0 -130 87.5 -222.5t215.5 -92.5q129 0 217 92.5t88 222.5q0 132 -88 225t-217 93q-128 0 -215.5 -93 t-87.5 -225zM350 1053v159l205 123l203 -123v-159l-203 123z" />
<glyph unicode="&#xf5;" d="M43 477q0 139 69 256t186 184.5t255 67.5t256 -67.5t187 -184.5t69 -256q0 -137 -69 -253.5t-187 -184.5t-256 -68q-137 0 -254.5 68t-186.5 184.5t-69 253.5zM250 477q0 -130 87.5 -222.5t215.5 -92.5q129 0 217 92.5t88 222.5q0 132 -88 225t-217 93q-128 0 -215.5 -93 t-87.5 -225zM262 1155q49 137 197 137q39 0 100 -20.5t90 -20.5q64 0 94 64l103 -62q-49 -137 -197 -137q-33 0 -95 20.5t-95 20.5q-65 0 -94 -63z" />
<glyph unicode="&#xf6;" d="M43 477q0 139 69 256t186 184.5t255 67.5t256 -67.5t187 -184.5t69 -256q0 -137 -69 -253.5t-187 -184.5t-256 -68q-137 0 -254.5 68t-186.5 184.5t-69 253.5zM250 477q0 -130 87.5 -222.5t215.5 -92.5q129 0 217 92.5t88 222.5q0 132 -88 225t-217 93q-128 0 -215.5 -93 t-87.5 -225zM264 1180q0 40 28.5 70t69.5 30q40 0 69.5 -30t29.5 -70q0 -41 -29.5 -71t-69.5 -30q-41 0 -69.5 29.5t-28.5 71.5zM647 1180q0 40 28.5 70t69.5 30q40 0 69.5 -30t29.5 -70q0 -41 -29.5 -71t-69.5 -30q-41 0 -69.5 29.5t-28.5 71.5z" />
<glyph unicode="&#xf7;" horiz-adv-x="1048" d="M0 442v176h1049v-176h-1049zM391 184q0 56 39.5 97t95.5 41q55 0 95.5 -41t40.5 -97q0 -57 -40 -97t-96 -40q-57 0 -96 40t-39 97zM391 877q0 56 39.5 96.5t95.5 40.5q55 0 95.5 -40.5t40.5 -96.5q0 -57 -40 -97.5t-96 -40.5q-57 0 -96 40.5t-39 97.5z" />
<glyph unicode="&#xf8;" d="M43 0l131 139q-131 144 -131 338q0 139 69 256t186 184.5t255 67.5q178 0 315 -108l129 135l68 -70l-125 -133q125 -141 125 -332q0 -137 -69 -253.5t-187 -184.5t-256 -68q-166 0 -307 103l-137 -144zM250 477q0 -109 61 -192l424 448q-81 62 -182 62q-128 0 -215.5 -93 t-87.5 -225zM379 217q77 -55 174 -55q129 0 217 92.5t88 222.5q0 105 -57 187z" />
<glyph unicode="&#xf9;" horiz-adv-x="913" d="M123 317v646h196v-654q0 -61 43 -104t105 -43q61 0 104 43t43 104v654h197v-646q0 -143 -100.5 -243.5t-243.5 -100.5t-243.5 100.5t-100.5 243.5zM238 1346h200l195 -267h-144z" />
<glyph unicode="&#xfa;" horiz-adv-x="913" d="M123 317v646h196v-654q0 -61 43 -104t105 -43q61 0 104 43t43 104v654h197v-646q0 -143 -100.5 -243.5t-243.5 -100.5t-243.5 100.5t-100.5 243.5zM338 1079l194 267h201l-252 -267h-143z" />
<glyph unicode="&#xfb;" horiz-adv-x="913" d="M123 317v646h196v-654q0 -61 43 -104t105 -43q61 0 104 43t43 104v654h197v-646q0 -143 -100.5 -243.5t-243.5 -100.5t-243.5 100.5t-100.5 243.5zM262 1053v159l205 123l203 -123v-159l-203 123z" />
<glyph unicode="&#xfc;" horiz-adv-x="913" d="M123 317v646h196v-654q0 -61 43 -104t105 -43q61 0 104 43t43 104v654h197v-646q0 -143 -100.5 -243.5t-243.5 -100.5t-243.5 100.5t-100.5 243.5zM184 1180q0 40 29 70t70 30q40 0 69 -30t29 -70q0 -41 -29 -71t-69 -30q-41 0 -70 30t-29 71zM567 1180q0 40 29 70t70 30 q40 0 69 -30t29 -70q0 -41 -29 -71t-69 -30q-41 0 -70 30t-29 71z" />
<glyph unicode="&#xfd;" horiz-adv-x="884" d="M29 963h219l194 -383l195 383h219l-315 -557v-406h-197v406zM328 1079l194 267h201l-252 -267h-143z" />
<glyph unicode="&#xfe;" horiz-adv-x="903" d="M123 0v963h196v-117h228q131 0 224 -94.5t93 -225.5q0 -134 -93 -232.5t-224 -98.5h-228v-195h-196zM319 375h191q60 0 102.5 42.5t42.5 102.5t-42.5 103t-102.5 43h-191v-291z" />
<glyph unicode="&#xff;" horiz-adv-x="884" d="M29 963h219l194 -383l195 383h219l-315 -557v-406h-197v406zM154 1180q0 40 28.5 70t69.5 30q40 0 69 -30t29 -70q0 -41 -29 -71t-69 -30q-41 0 -69.5 29.5t-28.5 71.5zM537 1180q0 40 28.5 70t69.5 30q40 0 69 -30t29 -70q0 -41 -29 -71t-69 -30q-41 0 -69.5 29.5 t-28.5 71.5z" />
<glyph unicode="&#x152;" horiz-adv-x="2080" d="M66 715q0 152 58 289.5t156 237t234.5 158t286.5 58.5q99 0 188 -24h985v-201h-645q141 -147 187 -346h430v-197h-412q-4 -139 -56.5 -264t-144.5 -221h654v-205h-990q-106 -27 -196 -27q-201 0 -370 99.5t-267 270t-98 372.5zM291 715q0 -145 68.5 -269t186 -196 t255.5 -72t255.5 72t186 196t68.5 269q0 146 -68.5 270t-186 196t-255.5 72t-255.5 -72t-186 -196t-68.5 -270z" />
<glyph unicode="&#x153;" horiz-adv-x="1505" d="M43 477q0 139 69 256t186 184.5t255 67.5q75 0 149 -22h725v-185h-462q62 -84 86 -184h356v-180h-346q-18 -131 -92 -230h467v-184h-715q-85 -29 -168 -29q-137 0 -254.5 68t-186.5 184.5t-69 253.5zM250 477q0 -130 87.5 -222.5t215.5 -92.5q129 0 217 92.5t88 222.5 q0 132 -88 225t-217 93q-128 0 -215.5 -93t-87.5 -225z" />
<glyph unicode="&#x178;" horiz-adv-x="1163" d="M35 1434h231l316 -623l315 623h231l-442 -830v-604h-209v604zM293 1636q0 40 28.5 70.5t69.5 30.5q39 0 68.5 -30.5t29.5 -70.5q0 -41 -29 -70.5t-69 -29.5q-41 0 -69.5 29.5t-28.5 70.5zM676 1636q0 40 28.5 70.5t69.5 30.5q39 0 68.5 -30.5t29.5 -70.5q0 -41 -29 -70.5 t-69 -29.5q-41 0 -69.5 29.5t-28.5 70.5z" />
<glyph unicode="&#x2c6;" horiz-adv-x="741" d="M166 1053v159l205 123l202 -123v-159l-202 123z" />
<glyph unicode="&#x2dc;" horiz-adv-x="735" d="M72 1155q49 137 196 137q39 0 100.5 -20.5t90.5 -20.5q64 0 94 64l102 -62q-49 -137 -196 -137q-33 0 -95.5 20.5t-95.5 20.5q-65 0 -94 -63z" />
<glyph unicode="&#x2000;" horiz-adv-x="967" />
<glyph unicode="&#x2001;" horiz-adv-x="1935" />
<glyph unicode="&#x2002;" horiz-adv-x="967" />
<glyph unicode="&#x2003;" horiz-adv-x="1935" />
<glyph unicode="&#x2004;" horiz-adv-x="645" />
<glyph unicode="&#x2005;" horiz-adv-x="483" />
<glyph unicode="&#x2006;" horiz-adv-x="322" />
<glyph unicode="&#x2007;" horiz-adv-x="322" />
<glyph unicode="&#x2008;" horiz-adv-x="241" />
<glyph unicode="&#x2009;" horiz-adv-x="387" />
<glyph unicode="&#x200a;" horiz-adv-x="107" />
<glyph unicode="&#x2010;" horiz-adv-x="759" d="M106 412v180h545v-180h-545z" />
<glyph unicode="&#x2011;" horiz-adv-x="759" d="M106 412v180h545v-180h-545z" />
<glyph unicode="&#x2012;" horiz-adv-x="759" d="M106 412v180h545v-180h-545z" />
<glyph unicode="&#x2013;" horiz-adv-x="1310" d="M154 430v143h1003v-143h-1003z" />
<glyph unicode="&#x2014;" horiz-adv-x="2316" d="M154 430v143h2007v-143h-2007z" />
<glyph unicode="&#x2018;" horiz-adv-x="538" d="M88 1434h227l136 -439h-127z" />
<glyph unicode="&#x2019;" horiz-adv-x="538" d="M88 995l135 439h228l-236 -439h-127z" />
<glyph unicode="&#x201a;" horiz-adv-x="538" d="M88 -233l135 438h228l-236 -438h-127z" />
<glyph unicode="&#x201c;" horiz-adv-x="872" d="M88 1434h227l136 -439h-127zM422 1434h227l135 -439h-127z" />
<glyph unicode="&#x201d;" horiz-adv-x="872" d="M88 995l135 439h228l-236 -439h-127zM422 995l135 439h227l-235 -439h-127z" />
<glyph unicode="&#x201e;" horiz-adv-x="872" d="M88 -233l135 438h228l-236 -438h-127zM422 -233l135 438h227l-235 -438h-127z" />
<glyph unicode="&#x2022;" horiz-adv-x="792" d="M102 524q0 122 86 207.5t207 85.5t207 -85.5t86 -207.5t-86 -207.5t-207 -85.5t-207 85.5t-86 207.5z" />
<glyph unicode="&#x202f;" horiz-adv-x="387" />
<glyph unicode="&#x2039;" horiz-adv-x="665" d="M88 514l311 424h176l-309 -424l309 -424h-176z" />
<glyph unicode="&#x203a;" horiz-adv-x="665" d="M88 90l309 424l-309 424h176l311 -424l-311 -424h-176z" />
<glyph unicode="&#x205f;" horiz-adv-x="483" />
<glyph unicode="&#x20ac;" horiz-adv-x="1234" d="M51 485v144h84q-4 54 -4 131h-80v143h103q62 242 259.5 398.5t452.5 156.5q130 0 254 -45v-233q-118 73 -254 73q-165 0 -293 -92.5t-186 -257.5h512v-143h-541q-2 -18 -2 -45q0 -45 6 -86h537v-144h-493q51 -135 179.5 -221t280.5 -86q138 0 254 72v-232 q-124 -45 -254 -45q-243 0 -435 143t-265 369h-115z" />
<glyph unicode="&#x2122;" horiz-adv-x="1052" d="M68 1358v78h331v-78h-120v-420h-89v420h-122zM434 938l94 506l181 -344l180 344l94 -506h-84l-47 274l-143 -282l-144 282l-47 -274h-84z" />
<glyph unicode="&#xe000;" horiz-adv-x="962" d="M0 0v963h963v-963h-963z" />
</font>
</defs>
</svg>
